<?xml version="1.0" encoding="UTF-8" standalone="no"?>
<!-- Created with Inkscape (http://www.inkscape.org/) -->

<svg
   width="240mm"
   height="120mm"
   viewBox="0 0 240 120"
   version="1.1"
   id="svg8"
   inkscape:version="1.3 (1:1.3+202307231459+0e150ed6c4)"
   sodipodi:docname="camera.svg"
   xmlns:inkscape="http://www.inkscape.org/namespaces/inkscape"
   xmlns:sodipodi="http://sodipodi.sourceforge.net/DTD/sodipodi-0.dtd"
   xmlns="http://www.w3.org/2000/svg"
   xmlns:svg="http://www.w3.org/2000/svg"
   xmlns:rdf="http://www.w3.org/1999/02/22-rdf-syntax-ns#"
   xmlns:cc="http://creativecommons.org/ns#"
   xmlns:dc="http://purl.org/dc/elements/1.1/">
  <defs
     id="defs2">
    <rect
       x="175.84593"
       y="368.81803"
       width="234.8211"
       height="37.712204"
       id="rect6" />
    <marker
       style="overflow:visible"
       id="marker6"
       refX="0"
       refY="0"
       orient="auto"
       inkscape:stockid="Dot"
       markerWidth="1"
       markerHeight="1"
       viewBox="0 0 1 1"
       inkscape:isstock="true"
       inkscape:collect="always"
       preserveAspectRatio="xMidYMid">
      <path
         transform="scale(0.5)"
         style="fill:context-stroke;fill-rule:evenodd;stroke:none"
         d="M 5,0 C 5,2.76 2.76,5 0,5 -2.76,5 -5,2.76 -5,0 c 0,-2.76 2.3,-5 5,-5 2.76,0 5,2.24 5,5 z"
         sodipodi:nodetypes="sssss"
         id="path6" />
    </marker>
    <marker
       style="overflow:visible"
       id="Dot"
       refX="0"
       refY="0"
       orient="auto"
       inkscape:stockid="Dot"
       markerWidth="1"
       markerHeight="1"
       viewBox="0 0 1 1"
       inkscape:isstock="true"
       inkscape:collect="always"
       preserveAspectRatio="xMidYMid">
      <path
         transform="scale(0.5)"
         style="fill:context-stroke;fill-rule:evenodd;stroke:none"
         d="M 5,0 C 5,2.76 2.76,5 0,5 -2.76,5 -5,2.76 -5,0 c 0,-2.76 2.3,-5 5,-5 2.76,0 5,2.24 5,5 z"
         sodipodi:nodetypes="sssss"
         id="path17" />
    </marker>
    <marker
       style="overflow:visible"
       id="marker6-3"
       refX="0"
       refY="0"
       orient="auto"
       inkscape:stockid="Dot"
       markerWidth="1"
       markerHeight="1"
       viewBox="0 0 1 1"
       inkscape:isstock="true"
       inkscape:collect="always"
       preserveAspectRatio="xMidYMid">
      <path
         transform="scale(0.5)"
         style="fill:context-stroke;fill-rule:evenodd;stroke:none"
         d="M 5,0 C 5,2.76 2.76,5 0,5 -2.76,5 -5,2.76 -5,0 c 0,-2.76 2.3,-5 5,-5 2.76,0 5,2.24 5,5 z"
         sodipodi:nodetypes="sssss"
         id="path6-6" />
    </marker>
    <marker
       style="overflow:visible"
       id="Dot-7"
       refX="0"
       refY="0"
       orient="auto"
       inkscape:stockid="Dot"
       markerWidth="1"
       markerHeight="1"
       viewBox="0 0 1 1"
       inkscape:isstock="true"
       inkscape:collect="always"
       preserveAspectRatio="xMidYMid">
      <path
         transform="scale(0.5)"
         style="fill:context-stroke;fill-rule:evenodd;stroke:none"
         d="M 5,0 C 5,2.76 2.76,5 0,5 -2.76,5 -5,2.76 -5,0 c 0,-2.76 2.3,-5 5,-5 2.76,0 5,2.24 5,5 z"
         sodipodi:nodetypes="sssss"
         id="path17-5" />
    </marker>
  </defs>
  <sodipodi:namedview
     id="base"
     pagecolor="#ffffff"
     bordercolor="#666666"
     borderopacity="1.0"
     inkscape:pageopacity="0.0"
     inkscape:pageshadow="2"
     inkscape:zoom="1.406257"
     inkscape:cx="336.70943"
     inkscape:cy="242.48768"
     inkscape:document-units="mm"
     inkscape:current-layer="layer1"
     showgrid="false"
     showborder="true"
     width="200mm"
     showguides="true"
     inkscape:guide-bbox="true"
     inkscape:window-width="2488"
     inkscape:window-height="1536"
     inkscape:window-x="72"
     inkscape:window-y="27"
     inkscape:window-maximized="1"
     inkscape:showpageshadow="2"
     inkscape:pagecheckerboard="0"
     inkscape:deskcolor="#d1d1d1">
    <inkscape:grid
       type="xygrid"
       id="grid815"
       units="mm"
       spacingx="10"
       spacingy="10"
       empspacing="4"
       dotted="false"
       originx="0"
       originy="0"
       visible="false" />
  </sodipodi:namedview>
  <metadata
     id="metadata5">
    <rdf:RDF>
      <cc:Work
         rdf:about="">
        <dc:format>image/svg+xml</dc:format>
        <dc:type
           rdf:resource="http://purl.org/dc/dcmitype/StillImage" />
        <dc:title />
      </cc:Work>
    </rdf:RDF>
  </metadata>
  <g
     inkscape:label="Layer 1"
     inkscape:groupmode="layer"
     id="layer1"
     transform="translate(0,-177)">
    <path
       style="fill:none;stroke:#000000;stroke-width:0.264999"
       d="m 113.4578,206.26834 c -0.13304,28.86972 -0.13304,28.86972 -0.13304,28.86972"
       id="path1" />
    <path
       style="fill:none;stroke:#000000;stroke-width:0.264999"
       d="m 113.19172,237.00063 c -0.13304,27.80539 -0.13304,27.80539 -0.13304,27.80539"
       id="path2" />
    <path
       style="fill:none;stroke:#000000;stroke-width:0.264999"
       d="m 165.74258,205.07098 c -0.42814,-0.0856 -0.88474,-0.22217 -1.3304,-0.13304 -2.1572,0.43144 -0.11981,0.0599 -0.79824,0.39912 -0.56434,0.28217 -1.15702,0.51199 -1.72953,0.79824 -0.52854,0.26428 -0.98551,0.72295 -1.46344,1.06433 -0.80493,0.57494 -1.723,1.39978 -2.26168,2.26168 -0.31256,0.50009 -0.30784,1.18183 -0.39912,1.72952 -0.11975,0.71847 -0.2825,1.64742 -0.13304,2.39472 0.0778,0.38905 0.20695,0.78347 0.26608,1.19736 0.0939,0.65712 -0.18565,0.21449 0.13304,1.06432 0.0561,0.14972 0.20309,0.25216 0.26608,0.39913 0.21747,0.50744 0.33788,1.0784 0.53216,1.59648 0.14722,0.39259 0.46979,0.84562 0.6652,1.19736 0.16402,0.29523 0.23156,0.63805 0.39912,0.93128 0.41204,0.72106 0.90282,1.41599 1.3304,2.12864 0.38134,0.63557 0.54042,1.37023 0.93128,1.99561 0.39243,0.62787 0.41238,0.39013 0.6652,1.06432 0.0642,0.1712 0.061,0.3641 0.13304,0.53216 0.063,0.14696 0.2031,0.25215 0.26608,0.39912 0.072,0.16806 0.061,0.3641 0.13304,0.53216 0.063,0.14696 0.19458,0.25611 0.26609,0.39912 0.53929,1.07858 0.8689,2.28653 1.06432,3.45904 0.0758,0.45502 0.33274,0.86576 0.39912,1.33041 0.0619,0.43363 -0.072,0.89857 0,1.3304 0.20877,1.25262 0.45174,2.69157 0.26608,3.99121 -0.0397,0.27765 -0.21108,0.52321 -0.26608,0.79824 -0.0424,0.21201 -0.0364,0.47197 -0.13304,0.6652 -0.22765,0.4553 -0.86541,0.73237 -1.19736,1.06432 -0.0314,0.0314 0.0198,0.0934 0,0.13304 -0.10148,0.20295 -0.29992,0.33375 -0.39913,0.53216 -0.0397,0.0793 0.0397,0.18675 0,0.26608 -0.422,0.84402 -0.27477,2.67616 0,3.59209 0.16619,0.55395 0.43792,1.33222 0.6652,1.86256 0.063,0.14697 0.2031,0.25215 0.26609,0.39912 0.23306,0.54383 0.26369,1.1926 0.53216,1.72952 0.26524,0.53049 0.65164,1.14313 0.79824,1.72953 0.11592,0.46367 -0.21133,0.0913 0.13304,0.6652 0.0645,0.10755 0.20998,0.15389 0.26608,0.26608 0.0869,0.17385 0.13123,0.79461 0.26608,1.06432 0.2611,0.52221 0.5049,1.08313 0.79824,1.59648 0.14759,0.25829 0.24606,0.54315 0.39912,0.79824 0.12212,0.20353 0.45353,0.4293 0.53216,0.6652 0.0281,0.0841 -0.0215,0.18004 0,0.26608 0.0566,0.22618 0.53531,1.00567 0.6652,1.3304 0.45497,1.13743 1.38569,2.14073 1.19736,3.45905 -0.14354,1.00478 -0.61491,2.02807 -1.06432,2.92688 -0.0715,0.14301 -0.20309,0.25216 -0.26608,0.39912 -0.072,0.16806 -0.0513,0.36862 -0.13304,0.53216 -0.38135,0.76271 -1.93598,2.50789 -2.79384,2.79385 -0.26637,0.0888 -0.65833,-0.0546 -0.93128,0 -0.0972,0.0194 -0.16988,0.10899 -0.26608,0.13304 -0.21512,0.0538 -0.4457,-0.0314 -0.6652,0 -0.35477,0.0507 -1.20416,0.27287 -1.46345,0.53216"
       id="path3" />
    <path
       style="fill:none;stroke:#000000;stroke-width:0.264999"
       d="m 75.541358,206.53442 c 0.399119,59.33593 0.399119,59.602 0.399119,59.602"
       id="path4" />
    <path
       style="fill:none;stroke:#000000;stroke-width:0.264999;stroke-dasharray:0.264999, 1.06;stroke-dashoffset:0;marker-start:url(#marker6);marker-end:url(#Dot)"
       d="M 158.42537,209.32827 C 75.40886,258.28705 76.072975,257.88794 76.072975,257.88794"
       id="path5" />
    <path
       style="fill:none;stroke:#000000;stroke-width:0.264999;stroke-dasharray:0.264999, 1.06;stroke-dashoffset:0;marker-start:url(#marker6-3);marker-end:url(#Dot-7)"
       d="M 166.27474,251.90113 C 75.661169,224.35565 75.740919,224.34876 75.740919,224.34876"
       id="path5-3"
       sodipodi:nodetypes="cc" />
    <text
       xml:space="preserve"
       transform="matrix(0.26458333,0,0,0.26458333,54.775042,170.70479)"
       id="text6"
       style="font-size:20px;white-space:pre;shape-inside:url(#rect6);display:inline;fill:none;stroke:#000000;stroke-width:1.00157;stroke-dasharray:none;stroke-dashoffset:0"><tspan
         x="175.8457"
         y="386.51367"
         id="tspan1">Pinhole model</tspan></text>
  </g>
</svg>
