<?xml version="1.0" encoding="UTF-8" standalone="no"?>
<!-- Created with Inkscape (http://www.inkscape.org/) -->

<svg
   width="100mm"
   height="50mm"
   viewBox="0 0 100 50"
   version="1.1"
   id="svg1"
   inkscape:version="1.3 (1:1.3+202307231459+0e150ed6c4)"
   sodipodi:docname="CurvatureContinuity.svg"
   xmlns:inkscape="http://www.inkscape.org/namespaces/inkscape"
   xmlns:sodipodi="http://sodipodi.sourceforge.net/DTD/sodipodi-0.dtd"
   xmlns="http://www.w3.org/2000/svg"
   xmlns:svg="http://www.w3.org/2000/svg">
  <sodipodi:namedview
     id="namedview1"
     pagecolor="#ffffff"
     bordercolor="#999999"
     borderopacity="1"
     inkscape:showpageshadow="2"
     inkscape:pageopacity="0"
     inkscape:pagecheckerboard="0"
     inkscape:deskcolor="#d1d1d1"
     inkscape:document-units="mm"
     inkscape:zoom="2.8284271"
     inkscape:cx="160.33646"
     inkscape:cy="55.684659"
     inkscape:window-width="1632"
     inkscape:window-height="1001"
     inkscape:window-x="72"
     inkscape:window-y="27"
     inkscape:window-maximized="1"
     inkscape:current-layer="layer1" />
  <defs
     id="defs1">
    <marker
       style="overflow:visible"
       id="ColoredDot"
       refX="0"
       refY="0"
       orient="auto"
       inkscape:stockid="Colored dot"
       markerWidth="1"
       markerHeight="1"
       viewBox="0 0 1 1"
       inkscape:isstock="true"
       inkscape:collect="always"
       preserveAspectRatio="xMidYMid">
      <path
         transform="scale(0.45)"
         style="fill:context-fill;fill-rule:evenodd;stroke:context-stroke;stroke-width:2"
         d="M 5,0 C 5,2.76 2.76,5 0,5 -2.76,5 -5,2.76 -5,0 c 0,-2.76 2.3,-5 5,-5 2.76,0 5,2.24 5,5 z"
         sodipodi:nodetypes="sssss"
         id="path20" />
    </marker>
    <marker
       style="overflow:visible"
       id="Dot"
       refX="0"
       refY="0"
       orient="auto"
       inkscape:stockid="Dot"
       markerWidth="1"
       markerHeight="1"
       viewBox="0 0 1 1"
       inkscape:isstock="true"
       inkscape:collect="always"
       preserveAspectRatio="xMidYMid">
      <path
         transform="scale(0.5)"
         style="fill:context-stroke;fill-rule:evenodd;stroke:none"
         d="M 5,0 C 5,2.76 2.76,5 0,5 -2.76,5 -5,2.76 -5,0 c 0,-2.76 2.3,-5 5,-5 2.76,0 5,2.24 5,5 z"
         sodipodi:nodetypes="sssss"
         id="path17" />
    </marker>
    <marker
       style="overflow:visible"
       id="Dot-7"
       refX="0"
       refY="0"
       orient="auto"
       inkscape:stockid="Dot"
       markerWidth="1"
       markerHeight="1"
       viewBox="0 0 1 1"
       inkscape:isstock="true"
       inkscape:collect="always"
       preserveAspectRatio="xMidYMid">
      <path
         transform="scale(0.5)"
         style="fill:context-stroke;fill-rule:evenodd;stroke:none"
         d="M 5,0 C 5,2.76 2.76,5 0,5 -2.76,5 -5,2.76 -5,0 c 0,-2.76 2.3,-5 5,-5 2.76,0 5,2.24 5,5 z"
         sodipodi:nodetypes="sssss"
         id="path17-5" />
    </marker>
    <marker
       style="overflow:visible"
       id="ColoredDot-3"
       refX="0"
       refY="0"
       orient="auto"
       inkscape:stockid="Colored dot"
       markerWidth="1"
       markerHeight="1"
       viewBox="0 0 1 1"
       inkscape:isstock="true"
       inkscape:collect="always"
       preserveAspectRatio="xMidYMid">
      <path
         transform="scale(0.45)"
         style="fill:context-fill;fill-rule:evenodd;stroke:context-stroke;stroke-width:2"
         d="M 5,0 C 5,2.76 2.76,5 0,5 -2.76,5 -5,2.76 -5,0 c 0,-2.76 2.3,-5 5,-5 2.76,0 5,2.24 5,5 z"
         sodipodi:nodetypes="sssss"
         id="path20-5" />
    </marker>
    <marker
       style="overflow:visible"
       id="Dot-7-2"
       refX="0"
       refY="0"
       orient="auto"
       inkscape:stockid="Dot"
       markerWidth="1"
       markerHeight="1"
       viewBox="0 0 1 1"
       inkscape:isstock="true"
       inkscape:collect="always"
       preserveAspectRatio="xMidYMid">
      <path
         transform="scale(0.5)"
         style="fill:context-stroke;fill-rule:evenodd;stroke:none"
         d="M 5,0 C 5,2.76 2.76,5 0,5 -2.76,5 -5,2.76 -5,0 c 0,-2.76 2.3,-5 5,-5 2.76,0 5,2.24 5,5 z"
         sodipodi:nodetypes="sssss"
         id="path17-5-6" />
    </marker>
    <marker
       style="overflow:visible"
       id="ColoredDot-3-1"
       refX="0"
       refY="0"
       orient="auto"
       inkscape:stockid="Colored dot"
       markerWidth="1"
       markerHeight="1"
       viewBox="0 0 1 1"
       inkscape:isstock="true"
       inkscape:collect="always"
       preserveAspectRatio="xMidYMid">
      <path
         transform="scale(0.45)"
         style="fill:context-fill;fill-rule:evenodd;stroke:context-stroke;stroke-width:2"
         d="M 5,0 C 5,2.76 2.76,5 0,5 -2.76,5 -5,2.76 -5,0 c 0,-2.76 2.3,-5 5,-5 2.76,0 5,2.24 5,5 z"
         sodipodi:nodetypes="sssss"
         id="path20-5-8" />
    </marker>
    <marker
       style="overflow:visible"
       id="Dot-7-2-2"
       refX="0"
       refY="0"
       orient="auto"
       inkscape:stockid="Dot"
       markerWidth="1"
       markerHeight="1"
       viewBox="0 0 1 1"
       inkscape:isstock="true"
       inkscape:collect="always"
       preserveAspectRatio="xMidYMid">
      <path
         transform="scale(0.5)"
         style="fill:context-stroke;fill-rule:evenodd;stroke:none"
         d="M 5,0 C 5,2.76 2.76,5 0,5 -2.76,5 -5,2.76 -5,0 c 0,-2.76 2.3,-5 5,-5 2.76,0 5,2.24 5,5 z"
         sodipodi:nodetypes="sssss"
         id="path17-5-6-3" />
    </marker>
    <marker
       style="overflow:visible"
       id="ColoredDot-3-1-7"
       refX="0"
       refY="0"
       orient="auto"
       inkscape:stockid="Colored dot"
       markerWidth="1"
       markerHeight="1"
       viewBox="0 0 1 1"
       inkscape:isstock="true"
       inkscape:collect="always"
       preserveAspectRatio="xMidYMid">
      <path
         transform="scale(0.45)"
         style="fill:context-fill;fill-rule:evenodd;stroke:context-stroke;stroke-width:2"
         d="M 5,0 C 5,2.76 2.76,5 0,5 -2.76,5 -5,2.76 -5,0 c 0,-2.76 2.3,-5 5,-5 2.76,0 5,2.24 5,5 z"
         sodipodi:nodetypes="sssss"
         id="path20-5-8-5" />
    </marker>
  </defs>
  <g
     inkscape:label="Layer 1"
     inkscape:groupmode="layer"
     id="layer1">
    <path
       style="fill:#000000;fill-opacity:0;stroke:#000000;stroke-width:0.2;stroke-miterlimit:3;stroke-dasharray:none;stroke-opacity:1;marker-start:url(#Dot);marker-end:url(#ColoredDot);paint-order:normal"
       d="m 12.097204,22.157359 c 3.285045,-8.620156 8.401472,-5.292125 14.719891,-2.880722"
       id="path1"
       sodipodi:nodetypes="cc" />
    <path
       style="fill:#000000;fill-opacity:0;stroke:#000000;stroke-width:0.2;stroke-miterlimit:3;stroke-dasharray:none;stroke-opacity:1;marker-start:url(#Dot-7);marker-end:url(#ColoredDot-3);paint-order:normal"
       d="m 27.763261,21.264413 c 6.36971,7.285243 13.202304,1.952585 15.783899,-4.092501"
       id="path1-2"
       sodipodi:nodetypes="cc" />
    <path
       style="fill:#000000;fill-opacity:0;stroke:#000000;stroke-width:0.2;stroke-miterlimit:3;stroke-dasharray:none;stroke-opacity:1;marker-start:url(#Dot-7-2);marker-end:url(#ColoredDot-3-1);paint-order:normal"
       d="m 43.54716,17.171912 c 8.75096,-5.745486 17.168046,-4.522762 23.486881,0.01549"
       id="path1-2-9"
       sodipodi:nodetypes="cc" />
    <path
       style="fill:#000000;fill-opacity:0;stroke:#000000;stroke-width:0.2;stroke-miterlimit:3;stroke-dasharray:none;stroke-opacity:1;marker-start:url(#Dot-7-2-2);marker-end:url(#ColoredDot-3-1-7);paint-order:normal"
       d="m 67.034041,17.187402 c 8.166308,6.438664 16.015532,6.587341 24.298798,2.870305"
       id="path1-2-9-2"
       sodipodi:nodetypes="cc" />
    <text
       xml:space="preserve"
       style="font-size:3.88056px;fill:#000000;fill-opacity:1;stroke:#000000;stroke-width:0.2;stroke-miterlimit:3;stroke-dasharray:none;stroke-opacity:1;paint-order:normal"
       x="11.217382"
       y="26.684868"
       id="text2"><tspan
         sodipodi:role="line"
         id="tspan2"
         style="font-size:3.88056px;fill:#000000;fill-opacity:1;stroke-width:0.2"
         x="11.217382"
         y="26.684868">$p_0$</tspan></text>
    <text
       xml:space="preserve"
       style="font-size:3.88056px;fill:#000000;fill-opacity:1;stroke:#000000;stroke-width:0.2;stroke-miterlimit:3;stroke-dasharray:none;stroke-opacity:1;paint-order:normal"
       x="23.799662"
       y="17.368889"
       id="text2-78"><tspan
         sodipodi:role="line"
         id="tspan2-4"
         style="font-size:3.88056px;fill:#000000;fill-opacity:1;stroke-width:0.2"
         x="23.799662"
         y="17.368889">$p_1$</tspan></text>
    <text
       xml:space="preserve"
       style="font-size:3.88056px;fill:#000000;fill-opacity:1;stroke:#000000;stroke-width:0.2;stroke-miterlimit:3;stroke-dasharray:none;stroke-opacity:1;paint-order:normal"
       x="38.175537"
       y="20.775209"
       id="text2-78-2"><tspan
         sodipodi:role="line"
         id="tspan2-4-0"
         style="font-size:3.88056px;fill:#000000;fill-opacity:1;stroke-width:0.2"
         x="38.175537"
         y="20.775209">$p_3$</tspan></text>
    <text
       xml:space="preserve"
       style="font-size:3.88056px;fill:#000000;fill-opacity:1;stroke:#000000;stroke-width:0.2;stroke-miterlimit:3;stroke-dasharray:none;stroke-opacity:1;paint-order:normal"
       x="22.583466"
       y="24.248055"
       id="text2-78-6"><tspan
         sodipodi:role="line"
         id="tspan2-4-1"
         style="font-size:3.88056px;fill:#000000;fill-opacity:1;stroke-width:0.2"
         x="22.583466"
         y="24.248055">$p_2$</tspan></text>
    <text
       xml:space="preserve"
       style="font-size:3.88056px;text-align:center;text-anchor:middle;fill:#000000;fill-opacity:1;stroke:#000000;stroke-width:0.2;stroke-miterlimit:3;stroke-dasharray:none;stroke-opacity:1;paint-order:normal"
       x="18.503584"
       y="15.130506"
       id="text2-7"><tspan
         sodipodi:role="line"
         id="tspan2-3"
         style="font-size:3.88056px;text-align:center;text-anchor:middle;fill:#000000;fill-opacity:1;stroke-width:0.2"
         x="18.503584"
         y="15.130506">$c_0$</tspan></text>
    <text
       xml:space="preserve"
       style="font-size:3.88056px;text-align:center;text-anchor:middle;fill:#000000;fill-opacity:1;stroke:#000000;stroke-width:0.2;stroke-miterlimit:3;stroke-dasharray:none;stroke-opacity:1;paint-order:normal"
       x="34.75177"
       y="23.537086"
       id="text2-7-9"><tspan
         sodipodi:role="line"
         id="tspan2-3-3"
         style="font-size:3.88056px;text-align:center;text-anchor:middle;fill:#000000;fill-opacity:1;stroke-width:0.2"
         x="34.75177"
         y="23.537086">$c_1$</tspan></text>
  </g>
</svg>
