<?xml version="1.0" encoding="UTF-8" standalone="no"?>
<!-- Created with Inkscape (http://www.inkscape.org/) -->

<svg
   width="240mm"
   height="120mm"
   viewBox="0 0 240 120"
   version="1.1"
   id="svg8"
   inkscape:version="1.3 (1:1.3+202307231459+0e150ed6c4)"
   sodipodi:docname="particlefilter.svg"
   xmlns:inkscape="http://www.inkscape.org/namespaces/inkscape"
   xmlns:sodipodi="http://sodipodi.sourceforge.net/DTD/sodipodi-0.dtd"
   xmlns="http://www.w3.org/2000/svg"
   xmlns:svg="http://www.w3.org/2000/svg"
   xmlns:rdf="http://www.w3.org/1999/02/22-rdf-syntax-ns#"
   xmlns:cc="http://creativecommons.org/ns#"
   xmlns:dc="http://purl.org/dc/elements/1.1/">
  <defs
     id="defs2">
    <rect
       x="238.91816"
       y="87.08756"
       width="110.99939"
       height="43.114518"
       id="rect10" />
  </defs>
  <sodipodi:namedview
     id="base"
     pagecolor="#ffffff"
     bordercolor="#666666"
     borderopacity="1.0"
     inkscape:pageopacity="0.0"
     inkscape:pageshadow="2"
     inkscape:zoom="0.99437388"
     inkscape:cx="412.82259"
     inkscape:cy="256.94561"
     inkscape:document-units="mm"
     inkscape:current-layer="layer1"
     showgrid="false"
     showborder="true"
     width="200mm"
     showguides="true"
     inkscape:guide-bbox="true"
     inkscape:window-width="1632"
     inkscape:window-height="1001"
     inkscape:window-x="72"
     inkscape:window-y="27"
     inkscape:window-maximized="1"
     inkscape:showpageshadow="2"
     inkscape:pagecheckerboard="0"
     inkscape:deskcolor="#d1d1d1">
    <inkscape:grid
       type="xygrid"
       id="grid815"
       units="mm"
       spacingx="10"
       spacingy="10"
       empspacing="4"
       dotted="false"
       originx="0"
       originy="0"
       visible="false" />
  </sodipodi:namedview>
  <metadata
     id="metadata5">
    <rdf:RDF>
      <cc:Work
         rdf:about="">
        <dc:format>image/svg+xml</dc:format>
        <dc:type
           rdf:resource="http://purl.org/dc/dcmitype/StillImage" />
      </cc:Work>
    </rdf:RDF>
  </metadata>
  <g
     inkscape:label="Layer 1"
     inkscape:groupmode="layer"
     id="layer1"
     transform="translate(0,-177)">
    <path
       style="fill:#000000;stroke:#000000;stroke-width:0.140441"
       d="m 40.996055,231.97156 c 145.013775,0 144.481615,0 144.481615,0"
       id="path1" />
    <path
       style="fill:#000000;stroke:#000000;stroke-width:0.140441"
       d="m 113.56076,231.97156 c 0,-34.06886 0,-34.06886 0,-34.06886"
       id="path2" />
    <path
       style="fill:#000000;stroke:#000000;stroke-width:0.140441"
       d="m 124.84959,231.97156 c 0,-26.63704 0,-26.63704 0,-26.63704 v 0.84666"
       id="path3" />
    <path
       style="fill:#000000;stroke:#000000;stroke-width:0.140441"
       d="m 136.42064,231.97156 c 0,-20.89855 0,-20.89855 0,-20.89855"
       id="path4" />
    <path
       style="fill:#000000;stroke:#000000;stroke-width:0.140441"
       d="m 149.68502,231.97156 c 0,-15.06599 0,-15.06599 0,-15.06599"
       id="path5" />
    <path
       style="fill:#000000;stroke:#000000;stroke-width:0.140441"
       d="m 165.30124,231.97156 c 0,-8.48084 0,-8.48084 0,-8.48084"
       id="path6" />
    <path
       style="fill:#000000;stroke:#000000;stroke-width:0.140441"
       d="m 100.20231,231.97156 c 0,-21.93336 0,-21.93336 0,-21.93336"
       id="path7" />
    <path
       style="fill:#000000;stroke:#000000;stroke-width:0.140441"
       d="m 84.115718,231.97156 c 0,-15.06599 0,-15.06599 0,-15.06599 v 0.94074"
       id="path8" />
    <path
       style="fill:#000000;stroke:#000000;stroke-width:0.140441"
       d="m 69.346164,231.97156 c 0,-10.55046 0,-10.55046 0,-10.55046"
       id="path9" />
    <path
       style="fill:none;stroke:#000000;stroke-width:0.140441"
       d="m 35.479681,230.92254 c 2.707764,-0.0328 5.483,0.34857 8.184403,0 1.771126,-0.22853 3.447103,-0.70882 5.174049,-1.12888 2.272117,-0.55268 1.15828,-0.13523 3.010355,-0.75259 1.193708,-0.3979 2.367341,-0.86519 3.574796,-1.22296 4.189254,-1.24126 8.059364,-2.79884 12.13549,-4.32739 0.799465,-0.29979 1.641846,-0.46879 2.445914,-0.75258 1.994654,-0.704 4.104736,-1.35614 6.02071,-2.25777 3.718103,-1.74969 7.35307,-3.81546 10.818464,-6.02071 1.82954,-1.16425 3.953134,-1.77434 5.738489,-3.01036 1.327806,-0.91925 2.437755,-2.07849 3.668871,-3.10443 1.776781,-1.48064 -0.701627,0.81744 1.128885,-0.84666 1.514703,-1.377 2.750233,-3.01309 4.327383,-4.32738 1.55068,-1.29223 3.57275,-2.02156 5.36219,-2.91628 4.88538,-2.44269 8.99158,-3.05589 14.39327,-1.97555 1.8892,0.37784 3.79751,0.65468 5.64441,1.22296 4.09185,1.25903 7.68367,3.6257 11.66513,5.17405 3.74522,1.45647 7.23528,2.76243 10.72439,4.79775 1.08726,0.63423 0.0392,-0.0326 1.12888,0.47037 1.2787,0.59017 2.72276,1.39167 3.76295,2.35184 2.7808,2.56689 5.4338,5.33973 8.09033,7.99625 1.00255,1.00255 1.75758,2.24035 2.8222,3.1985 0.97864,0.88077 1.99728,1.71506 2.91629,2.63407 0.21276,0.21276 0.53983,0.35168 0.75259,0.56444 0.59112,0.59112 2.65045,2.42649 3.48072,2.63406 1.37505,0.34376 2.90145,0.37629 4.42146,0.37629"
       id="path10" />
    <text
       xml:space="preserve"
       transform="matrix(0.26458333,0,0,0.26458333,78.051728,175.42342)"
       id="text10"
       style="font-size:20px;white-space:pre;shape-inside:url(#rect10);display:inline;fill:#000000;fill-opacity:1;stroke:#000000;stroke-width:0.5308"><tspan
         x="238.91797"
         y="104.7832"
         id="tspan1">$f$</tspan></text>
  </g>
</svg>
